<svg width="52" height="52" viewBox="0 0 52 52" fill="none" xmlns="http://www.w3.org/2000/svg">
<path d="M26 2.00012C39.2548 2.00012 49.9999 12.7452 49.9999 25.9997C49.9999 39.2548 39.2548 50.0003 26 50.0003C12.7452 50.0003 2.00001 39.2548 2.00001 25.9997C2.00001 12.7452 12.7451 2.00012 26 2.00012Z" fill="black" fill-opacity="0.01" stroke="white" stroke-width="2"/>
<g clip-path="url(#clip0_29_44)">
<path d="M37.9766 21.0561C37.9204 19.7809 37.7142 18.9042 37.4187 18.1445C37.114 17.3381 36.6452 16.6162 36.0309 16.016C35.4307 15.4065 34.704 14.9329 33.907 14.6329C33.1429 14.3375 32.2708 14.1313 30.9956 14.0751C29.7109 14.0141 29.303 14 26.0446 14C22.7861 14 22.3783 14.0141 21.0983 14.0703C19.8231 14.1266 18.9464 14.333 18.1869 14.6282C17.3804 14.9329 16.6584 15.4018 16.0583 16.016C15.4488 16.6162 14.9753 17.3429 14.6752 18.1399C14.3798 18.9042 14.1735 19.7761 14.1173 21.0513C14.0563 22.336 14.0422 22.7439 14.0422 26.0023C14.0422 29.2608 14.0563 29.6686 14.1126 30.9486C14.1688 32.2238 14.3752 33.1005 14.6706 33.8602C14.9753 34.6666 15.4488 35.3885 16.0583 35.9887C16.6584 36.5982 17.3851 37.0718 18.1821 37.3718C18.9464 37.6672 19.8183 37.8734 21.0937 37.9296C22.3735 37.986 22.7816 37.9999 26.04 37.9999C29.2984 37.9999 29.7063 37.986 30.9863 37.9296C32.2615 37.8734 33.1382 37.6672 33.8977 37.3718C35.5106 36.7482 36.7858 35.4729 37.4094 33.8602C37.7046 33.096 37.911 32.2238 37.9673 30.9486C38.0235 29.6686 38.0376 29.2608 38.0376 26.0023C38.0376 22.7439 38.0328 22.336 37.9766 21.0561ZM35.8153 30.8549C35.7637 32.027 35.5668 32.6599 35.4027 33.0819C34.9994 34.1274 34.1696 34.9572 33.1241 35.3605C32.7021 35.5246 32.0646 35.7215 30.8971 35.7729C29.6312 35.8293 29.2516 35.8433 26.0493 35.8433C22.8471 35.8433 22.4627 35.8293 21.2014 35.7729C20.0293 35.7215 19.3964 35.5246 18.9744 35.3605C18.4541 35.1682 17.9805 34.8634 17.5961 34.4649C17.1976 34.0758 16.8928 33.6069 16.7005 33.0866C16.5364 32.6647 16.3396 32.027 16.2881 30.8596C16.2317 29.5937 16.2178 29.2139 16.2178 26.0117C16.2178 22.8095 16.2317 22.425 16.2881 21.1639C16.3396 19.9918 16.5364 19.3589 16.7005 18.9369C16.8928 18.4165 17.1976 17.943 17.6009 17.5584C17.9898 17.1599 18.4587 16.8552 18.9792 16.6631C19.4011 16.499 20.0388 16.3021 21.2062 16.2504C22.472 16.1942 22.8519 16.1801 26.0539 16.1801C29.2609 16.1801 29.6406 16.1942 30.9018 16.2504C32.074 16.3021 32.7069 16.499 33.1288 16.6631C33.6491 16.8552 34.1228 17.1599 34.5072 17.5584C34.9057 17.9476 35.2104 18.4165 35.4027 18.9369C35.5668 19.3589 35.7637 19.9964 35.8153 21.1639C35.8716 22.4298 35.8857 22.8095 35.8857 26.0117C35.8857 29.2139 35.8716 29.589 35.8153 30.8549Z" fill="white"/>
<path d="M26.0444 19.8369C22.6407 19.8369 19.8792 22.5983 19.8792 26.0022C19.8792 29.406 22.6407 32.1674 26.0444 32.1674C29.4483 32.1674 32.2097 29.406 32.2097 26.0022C32.2097 22.5983 29.4483 19.8369 26.0444 19.8369ZM26.0444 30.0014C23.8363 30.0014 22.0452 28.2105 22.0452 26.0022C22.0452 23.7939 23.8363 22.0029 26.0444 22.0029C28.2527 22.0029 30.0437 23.7939 30.0437 26.0022C30.0437 28.2105 28.2527 30.0014 26.0444 30.0014Z" fill="white"/>
<path d="M33.893 19.5936C33.893 20.3884 33.2485 21.0329 32.4535 21.0329C31.6586 21.0329 31.0142 20.3884 31.0142 19.5936C31.0142 18.7986 31.6586 18.1543 32.4535 18.1543C33.2485 18.1543 33.893 18.7986 33.893 19.5936Z" fill="white"/>
</g>
<defs>
<clipPath id="clip0_29_44">
<rect width="24" height="24" fill="white" transform="translate(14 14)"/>
</clipPath>
</defs>
</svg>
