<svg width="187" height="46" viewBox="0 0 187 46" fill="none" xmlns="http://www.w3.org/2000/svg">
<path d="M36.5549 29.3278V18.8736H36.1378C35.4947 18.8736 35.0341 18.752 34.756 18.5086C34.4866 18.2566 34.3519 17.9307 34.3519 17.531C34.3519 17.1313 34.4866 16.8097 34.756 16.5664C35.0341 16.3144 35.4947 16.1884 36.1378 16.1884H42.8378C44.4368 16.1884 45.7229 16.6359 46.6962 17.531C47.6695 18.4174 48.1562 19.4732 48.1562 20.6985C48.1562 21.2808 48.0432 21.8283 47.8172 22.341C47.5913 22.8537 47.248 23.3273 46.7875 23.7618C47.6304 24.2658 48.2604 24.8567 48.6776 25.5346C49.1034 26.2037 49.3163 26.9641 49.3163 27.8157C49.3163 28.4936 49.1642 29.1236 48.86 29.7058C48.6341 30.149 48.356 30.501 48.0258 30.7617C47.5826 31.1266 47.0395 31.4265 46.3964 31.6611C45.7533 31.887 44.9495 32 43.9849 32H36.1378C35.4947 32 35.0341 31.8783 34.756 31.635C34.4866 31.383 34.3519 31.0571 34.3519 30.6574C34.3519 30.2663 34.491 29.9491 34.7691 29.7058C35.0472 29.4538 35.5034 29.3278 36.1378 29.3278H36.5549ZM39.2271 22.7581H42.16C43.2115 22.7581 44.0848 22.493 44.7801 21.963C45.2493 21.6067 45.4839 21.1635 45.4839 20.6334C45.4839 20.1641 45.2624 19.7557 44.8192 19.4081C44.376 19.0518 43.6721 18.8736 42.7075 18.8736H39.2271V22.7581ZM39.2271 29.3278H43.8415C44.9278 29.3278 45.6925 29.167 46.1357 28.8455C46.4746 28.6022 46.6441 28.2546 46.6441 27.8027C46.6441 27.2639 46.3095 26.7338 45.6404 26.2124C44.9712 25.691 44.011 25.4303 42.7596 25.4303H39.2271V29.3278ZM56.9288 18.8736V29.3278H62.6903V26.799C62.6903 26.1559 62.812 25.6997 63.0553 25.4303C63.3073 25.1522 63.6332 25.0132 64.0329 25.0132C64.424 25.0132 64.7412 25.1522 64.9845 25.4303C65.2365 25.6997 65.3625 26.1559 65.3625 26.799V32H52.7054C52.0623 32 51.6018 31.8783 51.3237 31.635C51.0543 31.383 50.9196 31.0571 50.9196 30.6574C50.9196 30.2663 51.0543 29.9491 51.3237 29.7058C51.6018 29.4538 52.0623 29.3278 52.7054 29.3278H54.2566V18.8736H52.7054C52.0623 18.8736 51.6018 18.752 51.3237 18.5086C51.0543 18.2566 50.9196 17.9307 50.9196 17.531C50.9196 17.1313 51.0543 16.8097 51.3237 16.5664C51.6018 16.3144 52.0623 16.1884 52.7054 16.1884L58.493 16.2014C59.1361 16.2014 59.5923 16.3231 59.8617 16.5664C60.1398 16.8097 60.2788 17.1313 60.2788 17.531C60.2788 17.9307 60.1398 18.2566 59.8617 18.5086C59.5923 18.752 59.1361 18.8736 58.493 18.8736H56.9288ZM77.3418 27.6984H70.8503L70.1986 29.3278H70.8503C71.4934 29.3278 71.9496 29.4538 72.219 29.7058C72.4971 29.9491 72.6361 30.2707 72.6361 30.6704C72.6361 31.0615 72.4971 31.383 72.219 31.635C71.9496 31.8783 71.4934 32 70.8503 32H67.2526C66.6095 32 66.1533 31.8783 65.8839 31.635C65.6058 31.383 65.4668 31.0571 65.4668 30.6574C65.4668 30.2576 65.6102 29.9318 65.897 29.6797C66.1837 29.4277 66.6573 29.3104 67.3178 29.3278L71.5151 18.8736H69.7684C69.1253 18.8736 68.6648 18.752 68.3867 18.5086C68.1173 18.2566 67.9826 17.9307 67.9826 17.531C67.9826 17.1313 68.1173 16.8097 68.3867 16.5664C68.6648 16.3144 69.1253 16.1884 69.7684 16.1884L75.543 16.2014L80.8613 29.3278C81.487 29.3278 81.8998 29.3973 82.0996 29.5364C82.4994 29.8231 82.6992 30.2012 82.6992 30.6704C82.6992 31.0615 82.5645 31.383 82.2952 31.635C82.0258 31.8783 81.5695 32 80.9265 32H77.3288C76.6857 32 76.2251 31.8783 75.947 31.635C75.6777 31.383 75.543 31.0571 75.543 30.6574C75.543 30.2663 75.6777 29.9491 75.947 29.7058C76.2251 29.4538 76.6857 29.3278 77.3288 29.3278H77.9805L77.3418 27.6984ZM76.2338 25.0262L74.083 19.7339L71.9192 25.0262H76.2338ZM94.3005 16.8792C94.4656 16.6533 94.6438 16.4839 94.8349 16.3709C95.0348 16.2579 95.2477 16.2014 95.4737 16.2014C95.8647 16.2014 96.1819 16.3361 96.4252 16.6055C96.6772 16.8749 96.8033 17.3311 96.8033 17.9742V20.2423C96.8033 20.8854 96.6772 21.346 96.4252 21.624C96.1819 21.8934 95.8647 22.0281 95.4737 22.0281C95.1174 22.0281 94.8306 21.9282 94.6133 21.7283C94.3961 21.5284 94.2353 21.1548 94.131 20.6073C94.0702 20.2423 93.9486 19.9599 93.7661 19.76C93.4098 19.369 92.9101 19.0561 92.267 18.8215C91.6326 18.5869 90.9939 18.4695 90.3509 18.4695C89.5514 18.4695 88.8171 18.6433 88.1479 18.9909C87.4788 19.3385 86.8879 19.9034 86.3751 20.6855C85.8624 21.4676 85.6061 22.3975 85.6061 23.475V25.2087C85.6061 26.4948 86.071 27.5681 87.0008 28.4284C87.9394 29.2887 89.2385 29.7189 90.8983 29.7189C91.889 29.7189 92.7276 29.5842 93.4141 29.3148C93.8139 29.1583 94.2397 28.8498 94.6916 28.3893C94.9696 28.1112 95.1869 27.933 95.3433 27.8548C95.4997 27.7679 95.6779 27.7245 95.8778 27.7245C96.2341 27.7245 96.5469 27.8592 96.8163 28.1286C97.0857 28.398 97.2204 28.7151 97.2204 29.0801C97.2204 29.4451 97.0379 29.8362 96.6729 30.2533C96.1428 30.8616 95.4606 31.3396 94.6264 31.6872C93.5054 32.1564 92.267 32.3911 90.9114 32.3911C89.3298 32.3911 87.9046 32.0652 86.6358 31.4134C85.6104 30.892 84.7371 30.0708 84.0158 28.9498C83.2945 27.8201 82.9339 26.5904 82.9339 25.2608V23.449C82.9339 22.0585 83.2554 20.7637 83.8985 19.5645C84.5502 18.3566 85.4497 17.4267 86.5967 16.775C87.7438 16.1232 88.9604 15.7973 90.2466 15.7973C91.02 15.7973 91.7413 15.8886 92.4104 16.0711C93.0882 16.2449 93.7183 16.5143 94.3005 16.8792ZM105.028 18.8736V29.3278H110.79V26.799C110.79 26.1559 110.912 25.6997 111.155 25.4303C111.407 25.1522 111.733 25.0132 112.133 25.0132C112.524 25.0132 112.841 25.1522 113.084 25.4303C113.336 25.6997 113.462 26.1559 113.462 26.799V32H100.805C100.162 32 99.7014 31.8783 99.4233 31.635C99.1539 31.383 99.0192 31.0571 99.0192 30.6574C99.0192 30.2663 99.1539 29.9491 99.4233 29.7058C99.7014 29.4538 100.162 29.3278 100.805 29.3278H102.356V18.8736H100.805C100.162 18.8736 99.7014 18.752 99.4233 18.5086C99.1539 18.2566 99.0192 17.9307 99.0192 17.531C99.0192 17.1313 99.1539 16.8097 99.4233 16.5664C99.7014 16.3144 100.162 16.1884 100.805 16.1884L106.593 16.2014C107.236 16.2014 107.692 16.3231 107.961 16.5664C108.239 16.8097 108.378 17.1313 108.378 17.531C108.378 17.9307 108.239 18.2566 107.961 18.5086C107.692 18.752 107.236 18.8736 106.593 18.8736H105.028ZM123.512 18.8736V29.3278H126.211C126.854 29.3278 127.31 29.4538 127.579 29.7058C127.857 29.9491 127.996 30.2707 127.996 30.6704C127.996 31.0615 127.857 31.383 127.579 31.635C127.31 31.8783 126.854 32 126.211 32H118.142C117.499 32 117.038 31.8783 116.76 31.635C116.491 31.383 116.356 31.0571 116.356 30.6574C116.356 30.2663 116.491 29.9491 116.76 29.7058C117.038 29.4538 117.499 29.3278 118.142 29.3278H120.84V18.8736H118.142C117.499 18.8736 117.038 18.752 116.76 18.5086C116.491 18.2566 116.356 17.9307 116.356 17.531C116.356 17.1313 116.491 16.8097 116.76 16.5664C117.038 16.3144 117.499 16.1884 118.142 16.1884L126.211 16.2014C126.854 16.2014 127.31 16.3231 127.579 16.5664C127.857 16.8097 127.996 17.1313 127.996 17.531C127.996 17.9307 127.857 18.2566 127.579 18.5086C127.31 18.752 126.854 18.8736 126.211 18.8736H123.512ZM134.866 21.246V29.3278H135.83C136.473 29.3278 136.93 29.4538 137.199 29.7058C137.477 29.9491 137.616 30.2707 137.616 30.6704C137.616 31.0615 137.477 31.383 137.199 31.635C136.93 31.8783 136.473 32 135.83 32H132.324C131.681 32 131.22 31.8783 130.942 31.635C130.673 31.383 130.538 31.0571 130.538 30.6574C130.538 30.275 130.673 29.9578 130.942 29.7058C131.212 29.4538 131.629 29.3278 132.194 29.3278V18.8736H131.776C131.133 18.8736 130.673 18.752 130.395 18.5086C130.125 18.2566 129.991 17.9307 129.991 17.531C129.991 17.1313 130.125 16.8097 130.395 16.5664C130.673 16.3144 131.133 16.1884 131.776 16.1884L134.866 16.2014L141.696 26.9163V18.8736H140.732C140.089 18.8736 139.628 18.752 139.35 18.5086C139.081 18.2566 138.946 17.9307 138.946 17.531C138.946 17.1313 139.081 16.8097 139.35 16.5664C139.628 16.3144 140.089 16.1884 140.732 16.1884L144.238 16.2014C144.881 16.2014 145.337 16.3231 145.607 16.5664C145.885 16.8097 146.024 17.1313 146.024 17.531C146.024 17.9221 145.889 18.2436 145.62 18.4956C145.35 18.7476 144.938 18.8736 144.381 18.8736V32H141.735L134.866 21.246ZM155.579 18.8736V29.3278H158.277C158.92 29.3278 159.376 29.4538 159.646 29.7058C159.924 29.9491 160.063 30.2707 160.063 30.6704C160.063 31.0615 159.924 31.383 159.646 31.635C159.376 31.8783 158.92 32 158.277 32H150.208C149.565 32 149.105 31.8783 148.826 31.635C148.557 31.383 148.422 31.0571 148.422 30.6574C148.422 30.2663 148.557 29.9491 148.826 29.7058C149.105 29.4538 149.565 29.3278 150.208 29.3278H152.906V18.8736H150.208C149.565 18.8736 149.105 18.752 148.826 18.5086C148.557 18.2566 148.422 17.9307 148.422 17.531C148.422 17.1313 148.557 16.8097 148.826 16.5664C149.105 16.3144 149.565 16.1884 150.208 16.1884L158.277 16.2014C158.92 16.2014 159.376 16.3231 159.646 16.5664C159.924 16.8097 160.063 17.1313 160.063 17.531C160.063 17.9307 159.924 18.2566 159.646 18.5086C159.376 18.752 158.92 18.8736 158.277 18.8736H155.579ZM174.467 16.8792C174.632 16.6533 174.81 16.4839 175.001 16.3709C175.201 16.2579 175.414 16.2014 175.64 16.2014C176.031 16.2014 176.348 16.3361 176.591 16.6055C176.843 16.8749 176.969 17.3311 176.969 17.9742V20.2423C176.969 20.8854 176.843 21.346 176.591 21.624C176.348 21.8934 176.031 22.0281 175.64 22.0281C175.283 22.0281 174.997 21.9282 174.779 21.7283C174.562 21.5284 174.401 21.1548 174.297 20.6073C174.236 20.2423 174.115 19.9599 173.932 19.76C173.576 19.369 173.076 19.0561 172.433 18.8215C171.799 18.5869 171.16 18.4695 170.517 18.4695C169.717 18.4695 168.983 18.6433 168.314 18.9909C167.645 19.3385 167.054 19.9034 166.541 20.6855C166.028 21.4676 165.772 22.3975 165.772 23.475V25.2087C165.772 26.4948 166.237 27.5681 167.167 28.4284C168.105 29.2887 169.405 29.7189 171.064 29.7189C172.055 29.7189 172.894 29.5842 173.58 29.3148C173.98 29.1583 174.406 28.8498 174.858 28.3893C175.136 28.1112 175.353 27.933 175.509 27.8548C175.666 27.7679 175.844 27.7245 176.044 27.7245C176.4 27.7245 176.713 27.8592 176.982 28.1286C177.252 28.398 177.386 28.7151 177.386 29.0801C177.386 29.4451 177.204 29.8362 176.839 30.2533C176.309 30.8616 175.627 31.3396 174.792 31.6872C173.671 32.1564 172.433 32.3911 171.077 32.3911C169.496 32.3911 168.071 32.0652 166.802 31.4134C165.776 30.892 164.903 30.0708 164.182 28.9498C163.461 27.8201 163.1 26.5904 163.1 25.2608V23.449C163.1 22.0585 163.421 20.7637 164.065 19.5645C164.716 18.3566 165.616 17.4267 166.763 16.775C167.91 16.1232 169.126 15.7973 170.413 15.7973C171.186 15.7973 171.907 15.8886 172.576 16.0711C173.254 16.2449 173.884 16.5143 174.467 16.8792Z" fill="#E9E9E9"/>
<path d="M0 41.4238H186.38" stroke="#E9E9E9" stroke-width="2" stroke-miterlimit="10"/>
<path d="M24 8.96396C24 4.56559 20.6421 1 16.5 1C12.3579 1 9 4.56559 9 8.96396V29.036C9 33.4344 12.3579 37 16.5 37C20.6421 37 24 33.4344 24 29.036V8.96396Z" stroke="#E9E9E9" stroke-miterlimit="10"/>
<path d="M9 20H23" stroke="#E9E9E9" stroke-miterlimit="10"/>
<path d="M9.02749 19V20.684C8.73413 31.8535 10 36 15.7973 36.9976C22 35.5 24 37.3923 24 20.7498V19H9.02749Z" fill="#E9E9E9"/>
</svg>
